<svg id="Layer_1" data-name="Layer 1" xmlns="http://www.w3.org/2000/svg" viewBox="0 0 40.09 40.09"><defs><style>.cls-1{fill:#f01616;}.cls-2{fill:none;stroke:#fff;stroke-linejoin:bevel;stroke-width:3.34px;}</style></defs><title>favicon</title><path class="cls-1" d="M0,20c.29-6.56.43-9.84,1.72-12.4A13.36,13.36,0,0,1,7.65,1.72C10.21.43,13.49.29,20,0c6.56.29,9.84.43,12.4,1.72a13.36,13.36,0,0,1,5.93,5.93c1.29,2.56,1.43,5.84,1.72,12.4-.29,6.56-.43,9.84-1.72,12.4a13.36,13.36,0,0,1-5.93,5.93c-2.56,1.29-5.84,1.43-12.4,1.72-6.56-.29-9.84-.43-12.4-1.72a13.36,13.36,0,0,1-5.93-5.93C.43,29.88.29,26.6,0,20Z"/><path class="cls-2" d="M13.36,8.35l7.1,7.1,7.1-7.1"/><path class="cls-2" d="M31.74,12.53l-7.1,7.1,7.1,7.1"/><path class="cls-2" d="M13.36,30.9l7.1-7.1,7.1,7.1"/><path class="cls-2" d="M9.19,12.53l7.1,7.1-7.1,7.1"/><path class="cls-2" d="M13.36,8.35l7.1,7.1L10,25.89"/></svg>