<svg width="223" height="41" viewBox="0 0 223 41" fill="none" xmlns="http://www.w3.org/2000/svg">
<path d="M54.2911 30.6705V7.28353H58.6344V16.6383H69.1586V7.28353H73.5019V30.6705H69.1586V20.9816H58.6344V30.6705H54.2911ZM88.8574 30.6705L88.5233 29H88.3563C88.0667 29.3564 87.6769 29.6905 87.1869 30.0023C86.1178 30.6705 84.8928 31.0046 83.5118 31.0046C81.6409 31.0046 80.1374 30.5035 79.0015 29.5012C77.8878 28.4989 77.331 27.2738 77.331 25.8261C77.331 24.0887 77.9323 22.7078 79.1351 21.6832C80.3379 20.6586 82.0752 20.1464 84.3471 20.1464H88.1892V19.8123C88.1892 18.8545 87.9108 18.0861 87.354 17.507C86.8194 16.9279 86.0955 16.6383 85.1823 16.6383C84.3137 16.6383 83.612 16.8611 83.0775 17.3065C82.5652 17.752 82.2645 18.2531 82.1754 18.81H77.9992C78.1996 17.2731 78.9124 15.9701 80.1374 14.901C81.3624 13.8319 83.0441 13.2973 85.1823 13.2973C87.3205 13.2973 89.0467 13.921 90.3609 15.1683C91.6973 16.4156 92.3655 17.9636 92.3655 19.8123V30.6705H88.8574ZM88.1892 23.8215V23.3203H84.6812C82.5652 23.3203 81.5072 24.0442 81.5072 25.492C81.5072 26.1602 81.7411 26.6947 82.2088 27.0956C82.6766 27.4743 83.3336 27.6636 84.18 27.6636C85.4496 27.6636 86.4296 27.3295 87.1201 26.6613C87.8328 25.9708 88.1892 25.0242 88.1892 23.8215ZM108.229 24.3226H112.405C112.249 25.0799 111.993 25.8149 111.636 26.5277C111.302 27.2404 110.835 27.9532 110.233 28.6659C109.632 29.3564 108.819 29.9243 107.794 30.3698C106.792 30.793 105.656 31.0046 104.387 31.0046C101.87 31.0046 99.7871 30.1805 98.1389 28.5323C96.5129 26.8618 95.6999 24.7347 95.6999 22.151C95.6999 19.5673 96.5129 17.4513 98.1389 15.8031C99.7871 14.1326 101.87 13.2973 104.387 13.2973C105.656 13.2973 106.792 13.5201 107.794 13.9655C108.819 14.3887 109.632 14.9455 110.233 15.636C110.835 16.3265 111.302 17.017 111.636 17.7074C111.993 18.3979 112.249 19.0995 112.405 19.8123H108.229C107.56 18.0304 106.28 17.1395 104.387 17.1395C103.117 17.1395 102.048 17.6072 101.179 18.5427C100.31 19.4782 99.8762 20.6809 99.8762 22.151C99.8762 23.621 100.31 24.8238 101.179 25.7592C102.048 26.6947 103.117 27.1625 104.387 27.1625C106.347 27.1625 107.627 26.2158 108.229 24.3226ZM115.919 30.6705V7.28353H120.096V21.3157L126.444 13.6314H131.288L124.272 21.9839L131.622 30.6705H126.778L120.096 22.6521V30.6705H115.919ZM133.306 30.6705V13.6314H137.148L137.482 15.3019H137.649C137.916 14.9678 138.295 14.6337 138.785 14.2996C139.81 13.6314 140.99 13.2973 142.326 13.2973C144.264 13.2973 145.857 13.9655 147.104 15.3019C148.374 16.616 149.008 18.3422 149.008 20.4805V30.6705H144.832V20.8146C144.832 19.7232 144.487 18.8434 143.796 18.1752C143.128 17.4847 142.248 17.1395 141.157 17.1395C140.066 17.1395 139.175 17.4847 138.484 18.1752C137.816 18.8434 137.482 19.7232 137.482 20.8146V30.6705H133.306ZM157.819 25.7592C158.688 26.6947 159.757 27.1625 161.027 27.1625C162.296 27.1625 163.366 26.6947 164.234 25.7592C165.103 24.8238 165.537 23.621 165.537 22.151C165.537 20.6809 165.103 19.4782 164.234 18.5427C163.366 17.6072 162.296 17.1395 161.027 17.1395C159.757 17.1395 158.688 17.6072 157.819 18.5427C156.951 19.4782 156.516 20.6809 156.516 22.151C156.516 23.621 156.951 24.8238 157.819 25.7592ZM154.779 15.8031C156.427 14.1326 158.51 13.2973 161.027 13.2973C163.544 13.2973 165.615 14.1326 167.241 15.8031C168.889 17.4513 169.713 19.5673 169.713 22.151C169.713 24.7347 168.889 26.8618 167.241 28.5323C165.615 30.1805 163.544 31.0046 161.027 31.0046C158.51 31.0046 156.427 30.1805 154.779 28.5323C153.153 26.8618 152.34 24.7347 152.34 22.151C152.34 19.5673 153.153 17.4513 154.779 15.8031ZM173.892 26.6613V17.6406H171.219V13.6314H173.892V8.78698H178.069V13.6314H181.911V17.6406H178.069V25.8261C178.069 26.6056 178.458 26.9954 179.238 26.9954H181.911V30.6705H178.236C176.832 30.6705 175.752 30.3253 174.995 29.6348C174.26 28.922 173.892 27.9309 173.892 26.6613ZM185.574 30.6705V13.6314H189.75V30.6705H185.574ZM185.407 10.9586V6.94943H189.917V10.9586H185.407ZM195.593 30.6705V17.6406H192.753V13.6314H195.593V11.1257C195.593 9.85609 195.972 8.84266 196.729 8.08537C197.486 7.32807 198.5 6.94943 199.769 6.94943H203.444V10.6245H200.939C200.605 10.6245 200.326 10.7359 200.103 10.9586C199.881 11.1814 199.769 11.4598 199.769 11.7939V13.6314H203.444V17.6406H199.769V30.6705H195.593ZM206.288 37.3525V33.5103H209.629C210.297 33.5103 210.721 33.2319 210.899 32.6751L211.199 31.8399L204.284 13.6314H208.627L212.97 25.1579H213.638L217.648 13.6314H221.991L214.808 34.0115C214.385 35.2365 213.817 36.0941 213.104 36.5841C212.413 37.0964 211.311 37.3525 209.796 37.3525H206.288Z" fill="black"/>
<path d="M0 20.046C0.28511 13.4885 0.427665 10.2097 1.71615 7.64852C3.00554 5.08553 5.08553 3.00554 7.64852 1.71615C10.2097 0.427665 13.4885 0.28511 20.046 0C26.6035 0.28511 29.8823 0.427665 32.4434 1.71615C35.0064 3.00554 37.0864 5.08553 38.3758 7.64852C39.6643 10.2097 39.8068 13.4885 40.092 20.046C39.8068 26.6035 39.6643 29.8823 38.3758 32.4434C37.0864 35.0064 35.0064 37.0864 32.4434 38.3758C29.8823 39.6643 26.6035 39.8068 20.046 40.092C13.4885 39.8068 10.2097 39.6643 7.64852 38.3758C5.08553 37.0864 3.00554 35.0064 1.71615 32.4434C0.427665 29.8823 0.28511 26.6035 0 20.046Z" fill="#F01616"/>
<path d="M13.364 8.35249L20.4636 15.4521L27.5632 8.35249" stroke="white" stroke-width="3.341" stroke-linejoin="bevel"/>
<path d="M31.7395 12.5287L24.6399 19.6283L31.7395 26.728" stroke="white" stroke-width="3.341" stroke-linejoin="bevel"/>
<path d="M13.364 30.9042L20.4636 23.8046L27.5632 30.9042" stroke="white" stroke-width="3.341" stroke-linejoin="bevel"/>
<path d="M9.18774 12.5287L16.2874 19.6283L9.18774 26.728" stroke="white" stroke-width="3.341" stroke-linejoin="bevel"/>
<path d="M13.3639 8.35249L20.4636 15.4521L10.0229 25.8927" stroke="white" stroke-width="3.341" stroke-linejoin="bevel"/>
</svg>
