<svg width="38" height="38" viewBox="0 0 38 38" fill="none" xmlns="http://www.w3.org/2000/svg">
<path d="M1.06593 30.5C0.74993 30.5 0.50293 30.254 0.50293 29.94L0.53193 29.844L0.65793 29.292L0.63693 29.29L6.73493 1.162L6.78793 0.943C6.83893 0.723 7.02193 0.5 7.31593 0.5H21.6479C23.7419 0.5 26.0039 1.466 27.5529 3.021C28.4369 3.909 29.4899 5.402 29.4809 7.475C29.4629 11.941 26.6039 19.5 15.9999 19.5C14.9609 19.5 13.3469 19.509 13.3469 19.509C12.6919 19.512 12.1949 19.936 12.0159 20.643L9.86593 30.5H1.06593Z" fill="#B6DCFE"/>
<path d="M21.6489 1C23.5849 1 25.7639 1.932 27.1999 3.374C28.0169 4.195 28.9899 5.572 28.9819 7.473C28.9639 11.754 26.2099 19 15.9999 19C14.9759 19 14.3389 19.003 13.7169 19.007L13.3439 19.009C12.4589 19.013 11.7639 19.593 11.5229 20.552L9.46293 30H1.06693C1.04793 30 1.02693 29.994 1.01493 29.977C1.01793 29.967 1.01993 29.956 1.02193 29.945L1.25193 28.823H1.25093L7.18893 1.429L7.27493 1.056C7.27793 1.042 7.29293 1 7.31693 1H21.6489ZM21.6489 0H7.31693C6.81293 0 6.40993 0.358 6.30093 0.831L6.29593 0.828L0.0309297 29.732L0.0449297 29.733C0.0299297 29.801 0.00292969 29.867 0.00292969 29.94C0.00292969 30.532 0.47893 31 1.06693 31H10.2689L12.5019 20.764C12.6129 20.321 12.8939 20.011 13.3509 20.008C14.1049 20.005 14.7739 20 15.9999 20C26.9999 20 29.9629 12 29.9809 7.477C29.9999 3 25.4109 0 21.6489 0Z" fill="#4788C7"/>
<path d="M9.064 37.5C8.748 37.5 8.5 37.254 8.5 36.94L8.529 36.844L8.655 36.292L8.634 36.29L14.732 8.18L14.79 7.943C14.841 7.723 15.024 7.5 15.319 7.5H29.661C31.758 7.5 34.022 8.467 35.572 10.023C36.457 10.911 37.509 12.403 37.5 14.475C37.481 18.941 34.619 26.5 24.009 26.5C23.128 26.5 21.809 26.509 21.809 26.509C21.127 26.512 20.535 26.978 20.367 27.643L17.979 37.122C17.922 37.344 17.723 37.5 17.494 37.5H9.064Z" fill="#DFF0FE"/>
<path d="M29.661 8C31.6 8 33.781 8.933 35.218 10.376C36.035 11.196 37.007 12.573 37 14.473C36.982 18.754 34.226 26 24.008 26C23.133 26 22.771 26.002 22.362 26.005L21.806 26.008C20.896 26.013 20.104 26.634 19.881 27.519L17.493 37H9.065C9.046 37 9.025 36.994 9.012 36.977C9.015 36.967 9.017 36.956 9.019 36.946L9.249 35.824H9.248L15.189 8.432L15.276 8.057C15.28 8.042 15.295 8 15.319 8H29.661ZM29.661 7H15.319C14.814 7 14.412 7.358 14.302 7.831L14.297 7.829L8.028 36.732L8.042 36.733C8.027 36.802 8 36.867 8 36.941C8 37.532 8.476 38 9.065 38H17.493C17.951 38 18.351 37.689 18.463 37.244L20.852 27.764C20.964 27.321 21.356 27.011 21.812 27.008C22.567 27.005 22.781 27 24.008 27C35.016 27 37.981 19 38 14.477C38.018 10 33.426 7 29.661 7Z" fill="#4788C7"/>
<path d="M14.7342 8.173L14.7902 7.944C14.8412 7.723 15.0242 7.5 15.3192 7.5C19.6822 7.503 27.5012 7.509 29.4812 7.513C29.4462 11.985 26.5722 19.5 16.0002 19.5C14.7732 19.5 12.3052 19.509 12.2832 19.51L14.7342 8.173Z" fill="#98CCFD"/>
<path d="M15.319 8C19.368 8.003 26.418 8.008 28.965 8.012C28.726 12.334 25.792 19 16 19C15.02 19 13.758 19.003 12.904 19.006L15.194 8.41L15.276 8.056C15.28 8.042 15.295 8 15.319 8ZM15.319 7C14.814 7 14.412 7.358 14.302 7.831L14.297 7.829L11.501 20.765C11.612 20.322 11.893 20.003 12.35 20C13.105 19.996 14.774 20 16 20C27 20 29.963 12 29.982 7.477C29.983 7.32 29.965 7.168 29.954 7.015C29.856 7.01 15.319 7 15.319 7Z" fill="#4788C7"/>
</svg>
