<svg width="40" height="40" viewBox="0 0 40 40" fill="none" xmlns="http://www.w3.org/2000/svg">
<path d="M4 32.5C2.6 32.5 1.5 31.4 1.5 30V10C1.5 8.6 2.6 7.5 4 7.5H36C37.4 7.5 38.5 8.6 38.5 10V30C38.5 31.4 37.4 32.5 36 32.5H4Z" fill="#98CCFD"/>
<path d="M36 8C37.1 8 38 8.9 38 10V30C38 31.1 37.1 32 36 32H4C2.9 32 2 31.1 2 30V10C2 8.9 2.9 8 4 8H36ZM36 7H4C2.3 7 1 8.3 1 10V30C1 31.7 2.3 33 4 33H36C37.7 33 39 31.7 39 30V10C39 8.3 37.7 7 36 7Z" fill="#4788C7"/>
<path d="M1 12H39V16H1V12Z" fill="#4788C7"/>
<path d="M5 18H17V20H5V18Z" fill="white"/>
<path d="M28 23C26.3431 23 25 24.3431 25 26C25 27.6569 26.3431 29 28 29C29.6569 29 31 27.6569 31 26C31 24.3431 29.6569 23 28 23Z" fill="#DFF0FE"/>
<path d="M32 23C30.3431 23 29 24.3431 29 26C29 27.6569 30.3431 29 32 29C33.6569 29 35 27.6569 35 26C35 24.3431 33.6569 23 32 23Z" fill="white"/>
<path d="M30 23.8C29.4477 23.8 29 24.785 29 26C29 27.215 29.4477 28.2 30 28.2C30.5523 28.2 31 27.215 31 26C31 24.785 30.5523 23.8 30 23.8Z" fill="#B6DCFE"/>
</svg>
