<svg width="42" height="42" viewBox="0 0 42 42" fill="none" xmlns="http://www.w3.org/2000/svg">
<path d="M26.5 0C19.3252 0 13.2684 4.89471 11.5156 11.5391C4.89856 13.3053 0 19.3364 0 26.5C0 35.0426 6.95735 42 15.5 42C22.6643 42 28.6954 37.1004 30.4609 30.4824C37.1025 28.7292 42 22.6751 42 15.5C42 6.95735 35.0427 2.66142e-06 26.5 2.66142e-06L26.5 0ZM26.5 3C33.4213 3 39 8.57866 39 15.5C39 20.8436 35.6623 25.3795 30.9668 27.1738C30.9766 26.9488 31 26.7274 31 26.5C31 17.9574 24.0427 11 15.5 11C15.2746 11 15.0551 11.0236 14.832 11.0332C16.628 6.34128 21.1585 3 26.5 3V3ZM27.5 5C26.6716 5 26 5.67157 26 6.5C26 7.32843 26.6716 8 27.5 8C28.3284 8 29 7.32843 29 6.5C29 5.67157 28.3284 5 27.5 5ZM21.5 7C20.6716 7 20 7.67157 20 8.5C20 9.32843 20.6716 10 21.5 10C22.3284 10 23 9.32843 23 8.5C23 7.67157 22.3284 7 21.5 7ZM34.5 10C33.6716 10 33 10.6716 33 11.5C33 12.3284 33.6716 13 34.5 13C35.3284 13 36 12.3284 36 11.5C36 10.6716 35.3284 10 34.5 10ZM28.5 11C27.6716 11 27 11.6716 27 12.5C27 13.3284 27.6716 14 28.5 14C29.3284 14 30 13.3284 30 12.5C30 11.6716 29.3284 11 28.5 11ZM15.5 14C22.4213 14 28 19.5787 28 26.5C28 33.4213 22.4213 39 15.5 39C8.57867 39 3 33.4213 3 26.5C3 19.5787 8.57867 14 15.5 14ZM13.5 18C12.6716 18 12 18.6716 12 19.5C12 20.3284 12.6716 21 13.5 21C14.3284 21 15 20.3284 15 19.5C15 18.6716 14.3284 18 13.5 18ZM33.5 18C32.6716 18 32 18.6716 32 19.5C32 20.3284 32.6716 21 33.5 21C34.3284 21 35 20.3284 35 19.5C35 18.6716 34.3284 18 33.5 18ZM21.5 19C20.6716 19 20 19.6716 20 20.5C20 21.3284 20.6716 22 21.5 22C22.3284 22 23 21.3284 23 20.5C23 19.6716 22.3284 19 21.5 19ZM7.5 22C6.67157 22 6 22.6716 6 23.5C6 24.3284 6.67157 25 7.5 25C8.32843 25 9 24.3284 9 23.5C9 22.6716 8.32843 22 7.5 22ZM14.5 25C13.6716 25 13 25.6716 13 26.5C13 27.3284 13.6716 28 14.5 28C15.3284 28 16 27.3284 16 26.5C16 25.6716 15.3284 25 14.5 25ZM22.5 27C21.6716 27 21 27.6716 21 28.5C21 29.3284 21.6716 30 22.5 30C23.3284 30 24 29.3284 24 28.5C24 27.6716 23.3284 27 22.5 27ZM9.5 31C8.67157 31 8 31.6716 8 32.5C8 33.3284 8.67157 34 9.5 34C10.3284 34 11 33.3284 11 32.5C11 31.6716 10.3284 31 9.5 31ZM17.5 33C16.6716 33 16 33.6716 16 34.5C16 35.3284 16.6716 36 17.5 36C18.3284 36 19 35.3284 19 34.5C19 33.6716 18.3284 33 17.5 33Z" fill="black"/>
</svg>
