<svg width="42" height="26" viewBox="0 0 42 26" fill="none" xmlns="http://www.w3.org/2000/svg">
<path d="M5.5 0C2.48022 0 0 2.48023 0 5.5V20.5C0 23.5198 2.48023 26 5.5 26H36.5C39.5198 26 42 23.5198 42 20.5V5.5C42 2.48022 39.5198 0 36.5 0H5.5ZM5.5 3H36.5C37.8982 3 39 4.10177 39 5.5V20.5C39 21.8982 37.8982 23 36.5 23H5.5C4.10177 23 3 21.8982 3 20.5V5.5C3 4.10177 4.10177 3 5.5 3ZM7.5 17C6.67157 17 6 17.6716 6 18.5C6 19.3284 6.67157 20 7.5 20C8.32843 20 9 19.3284 9 18.5C9 17.6716 8.32843 17 7.5 17ZM12.5 17C11.6716 17 11 17.6716 11 18.5C11 19.3284 11.6716 20 12.5 20C13.3284 20 14 19.3284 14 18.5C14 17.6716 13.3284 17 12.5 17ZM17.5 17C16.6716 17 16 17.6716 16 18.5C16 19.3284 16.6716 20 17.5 20C18.3284 20 19 19.3284 19 18.5C19 17.6716 18.3284 17 17.5 17Z" fill="black"/>
</svg>
