<svg width="40" height="40" viewBox="0 0 40 40" fill="none" xmlns="http://www.w3.org/2000/svg">
<path d="M20 0C8.97207 0 0 8.97207 0 20C0 31.0279 8.97207 40 20 40C31.0279 40 40 31.0279 40 20C40 8.97208 31.0279 0 20 0ZM20 3C29.4066 3 37 10.5934 37 20C37 29.4066 29.4066 37 20 37C10.5934 37 3 29.4066 3 20C3 10.5934 10.5934 3 20 3ZM20 8C16.7041 8 14 10.7041 14 14V16.2793C12.2636 16.9051 11 18.56 11 20.5V25.5C11 27.9675 13.0325 30 15.5 30H24.5C26.9675 30 29 27.9675 29 25.5V20.5C29 18.56 27.7364 16.9051 26 16.2793V14C26 10.7041 23.2959 8 20 8ZM20 11C21.6741 11 23 12.3259 23 14V16H17V14C17 12.3259 18.3259 11 20 11ZM15.5 19H24.5C25.3465 19 26 19.6535 26 20.5V25.5C26 26.3465 25.3465 27 24.5 27H15.5C14.6535 27 14 26.3465 14 25.5V20.5C14 19.6535 14.6535 19 15.5 19ZM20 21C18.8954 21 18 21.8954 18 23C18 24.1046 18.8954 25 20 25C21.1046 25 22 24.1046 22 23C22 21.8954 21.1046 21 20 21Z" fill="black"/>
</svg>
