<svg width="40" height="40" viewBox="0 0 40 40" fill="none" xmlns="http://www.w3.org/2000/svg">
<path d="M20 38.25C9.93714 38.25 1.75 30.0629 1.75 20C1.75 9.93714 9.93714 1.75 20 1.75C30.0629 1.75 38.25 9.93714 38.25 20C38.25 30.0629 30.0629 38.25 20 38.25Z" fill="#ECEFFF" stroke="#5C6BC0"/>
<path d="M12.1875 20.5L20.0625 8.125L27.9375 20.5L20.0625 25L12.1875 20.5Z" fill="#9FA8DA"/>
<path d="M20.0625 8.125L27.9375 20.5L20.0625 25V8.125Z" fill="#7986CB"/>
<path d="M12.1875 22.1875L20.0625 26.6875L27.9375 22.1875L20.0625 32.875L12.1875 22.1875Z" fill="#9FA8DA"/>
<path d="M20.0625 26.6875L27.9375 22.1875L20.0625 32.875V26.6875ZM12.1875 20.5L20.0625 17.125L27.9375 20.5L20.0625 25L12.1875 20.5Z" fill="#7986CB"/>
<path d="M20.0625 17.125L27.9375 20.5L20.0625 25V17.125Z" fill="#5C6BC0"/>
</svg>
