<svg width="46" height="34" viewBox="0 0 46 34" fill="none" xmlns="http://www.w3.org/2000/svg">
<path d="M7.4375 0.4375C7.18359 0.4375 6.94531 0.554689 6.75 0.75C2.40625 5.09375 0 10.8555 0 17C0 23.1445 2.40625 28.9062 6.75 33.25C6.94531 33.4453 7.17969 33.5625 7.4375 33.5625C7.69531 33.5625 7.96094 33.4453 8.15625 33.25L15.2187 26.1875C15.4062 26 15.5 25.7656 15.5 25.5C15.5 25.2344 15.4062 24.9688 15.2187 24.7812C13.1406 22.707 12 19.9375 12 17C12 14.0625 13.1406 11.293 15.2187 9.21875C15.4062 9.03125 15.5 8.76562 15.5 8.5C15.5 8.23437 15.4062 8 15.2187 7.8125L8.15625 0.75C7.96094 0.554689 7.69141 0.4375 7.4375 0.4375ZM38.5625 0.4375C38.3086 0.4375 38.0391 0.554689 37.8437 0.75L30.7812 7.8125C30.5938 8 30.5 8.23437 30.5 8.5C30.5 8.76562 30.5938 9.03125 30.7812 9.21875C32.8594 11.2969 34 14.0625 34 17C34 19.9375 32.8555 22.7031 30.7812 24.7812C30.5938 24.9688 30.5 25.2344 30.5 25.5C30.5 25.7656 30.5938 26 30.7812 26.1875L37.8437 33.25C38.0391 33.4453 38.3047 33.5625 38.5625 33.5625C38.8203 33.5625 39.0547 33.4453 39.25 33.25C43.5937 28.9062 46 23.1445 46 17C46 10.8555 43.5937 5.09375 39.25 0.75C39.0547 0.554689 38.8164 0.4375 38.5625 0.4375ZM23 11C19.6914 11 17 13.6914 17 17C17 20.3086 19.6914 23 23 23C26.3086 23 29 20.3086 29 17C29 13.6914 26.3086 11 23 11Z" fill="#F01616"/>
</svg>
