<svg width="40" height="40" viewBox="0 0 40 40" fill="none" xmlns="http://www.w3.org/2000/svg">
<path d="M20 38.25C9.93714 38.25 1.75 30.0629 1.75 20C1.75 9.93714 9.93714 1.75 20 1.75C30.0629 1.75 38.25 9.93714 38.25 20C38.25 30.0629 30.0629 38.25 20 38.25Z" fill="#F7931A" stroke="#BB6A07"/>
<path d="M17.001 7.99997H19.001V12.6155H17.001V7.99997ZM21.001 7.99997H23.001V12.6155H21.001V7.99997ZM17.001 27.3845H19.001V32H17.001V27.3845ZM21.001 27.3845H23.001V32H21.001V27.3845Z" fill="white"/>
<path d="M14.001 11H20.682C22.0045 11 22.9905 11.059 23.6405 11.1775C24.29 11.2965 24.8715 11.544 25.385 11.9205C25.898 12.297 26.3255 12.7985 26.6675 13.425C27.0095 14.051 27.18 14.7525 27.18 15.5305C27.18 16.3735 26.9695 17.147 26.5475 17.851C26.1255 18.5555 25.5535 19.0835 24.832 19.435C25.8505 19.7545 26.633 20.299 27.1805 21.068C27.7275 21.8375 28.001 22.7425 28.001 23.7815C28.001 24.6 27.8245 25.3965 27.471 26.17C27.1175 26.9435 26.635 27.5615 26.0235 28.024C25.4115 28.4865 24.6575 28.7715 23.76 28.8775C23.198 28.9435 21.841 28.984 19.69 29.0005H14.001V11ZM17.3755 13.9955V18.158H19.587C20.902 18.158 21.7195 18.1375 22.038 18.0965C22.6155 18.023 23.07 17.808 23.401 17.452C23.7315 17.0955 23.8965 16.627 23.8965 16.046C23.8965 15.4895 23.7545 15.0375 23.4695 14.689C23.184 14.3415 22.7605 14.1305 22.198 14.057C21.8635 14.016 20.902 13.9955 19.3135 13.9955H17.3755ZM17.3755 21.154V25.967H20.499C21.715 25.967 22.4865 25.93 22.8135 25.8565C23.3155 25.758 23.724 25.519 24.0395 25.138C24.3545 24.7575 24.5125 24.248 24.5125 23.6095C24.5125 23.0695 24.391 22.611 24.148 22.2345C23.905 21.858 23.5535 21.584 23.0935 21.4115C22.6335 21.2395 21.6355 21.154 20.1005 21.154H17.3755Z" fill="white"/>
</svg>
