<svg width="40" height="34" viewBox="0 0 40 34" fill="none" xmlns="http://www.w3.org/2000/svg">
<path d="M6.5 0C5.67161 8.37209e-05 5.00008 0.671607 5 1.5V6.10156C2.22297 6.36892 0 8.65717 0 11.5V28.5C0 31.5198 2.48023 34 5.5 34H34.5C37.5198 34 40 31.5198 40 28.5V11.5C40 8.65717 37.777 6.36892 35 6.10156V1.5C34.9999 0.671607 34.3284 8.37209e-05 33.5 0H23.5C22.6716 8.37209e-05 22.0001 0.671607 22 1.5V6H18V1.5C17.9999 0.671607 17.3284 8.37209e-05 16.5 0H6.5ZM8 3H15V6H8V3ZM25 3H32V6H25V3ZM5.5 9H6.25391C6.41494 9.02645 6.57921 9.02645 6.74024 9H16.2539C16.4149 9.02645 16.5792 9.02645 16.7402 9H23.2539C23.4149 9.02645 23.5792 9.02645 23.7402 9H33.2539C33.415 9.02645 33.5792 9.02645 33.7402 9H34.5C35.8982 9 37 10.1018 37 11.5V28.5C37 29.8982 35.8982 31 34.5 31H5.50001C4.10178 31 3.00001 29.8982 3.00001 28.5V11.5C3.00001 10.1018 4.10178 9 5.50001 9H5.5Z" fill="black"/>
</svg>
