<svg width="22" height="14" viewBox="0 0 22 14" fill="none" xmlns="http://www.w3.org/2000/svg">
<path d="M2.00008 0.00010042C1.63945 -0.00499958 1.304 0.184476 1.1222 0.495974C0.940388 0.807472 0.940388 1.19273 1.1222 1.50423C1.304 1.81573 1.63945 2.0052 2.00008 2.0001H20.0001C20.3607 2.0052 20.6962 1.81573 20.878 1.50423C21.0598 1.19273 21.0598 0.807472 20.878 0.495974C20.6962 0.184476 20.3607 -0.00499958 20.0001 0.00010042H2.00008ZM2.00008 6.0001C1.63945 5.995 1.304 6.18448 1.1222 6.49598C0.940388 6.80747 0.940388 7.19273 1.1222 7.50423C1.304 7.81573 1.63945 8.0052 2.00008 8.0001H20.0001C20.3607 8.0052 20.6962 7.81573 20.878 7.50423C21.0598 7.19273 21.0598 6.80747 20.878 6.49598C20.6962 6.18448 20.3607 5.995 20.0001 6.0001H2.00008ZM2.00008 12.0001C1.63945 11.995 1.304 12.1845 1.1222 12.496C0.940388 12.8075 0.940388 13.1927 1.1222 13.5042C1.304 13.8157 1.63945 14.0052 2.00008 14.0001H20.0001C20.3607 14.0052 20.6962 13.8157 20.878 13.5042C21.0598 13.1927 21.0598 12.8075 20.878 12.496C20.6962 12.1845 20.3607 11.995 20.0001 12.0001H2.00008Z" fill="black"/>
</svg>
