<svg width="46" height="46" viewBox="0 0 46 46" fill="none" xmlns="http://www.w3.org/2000/svg">
<path d="M23 0C10.318 0 0 10.318 0 23C0 35.682 10.318 46 23 46C35.682 46 46 35.682 46 23C46 10.318 35.682 0 23 0ZM23 9C26.364 9 29 11.636 29 15V17H27V15C27 12.757 25.243 11 23 11C20.757 11 19 12.757 19 15V17H17V15C17 11.636 19.636 9 23 9ZM16 19H17H19H27H29H30C31.1 19 32 19.9 32 21V31C32 32.1 31.1 33 30 33H16C14.9 33 14 32.1 14 31V21C14 19.9 14.9 19 16 19ZM23 23C21.8954 23 21 23.8954 21 25C21.0006 25.714 21.3817 26.3735 22 26.7305V28C22 28.6 22.4 29 23 29C23.6 29 24 28.6 24 28V26.7285C24.6177 26.3719 24.9987 25.7133 25 25C25 23.8954 24.1046 23 23 23Z" fill="#F01616"/>
</svg>
