<svg width="50" height="28" viewBox="0 0 50 28" fill="none" xmlns="http://www.w3.org/2000/svg">
<path d="M3 0C1.346 0 0 1.346 0 3V25C0 26.654 1.346 28 3 28H47C48.654 28 50 26.654 50 25V3C50 1.346 48.654 0 47 0H3ZM34.5 7C37.532 7 40 9.468 40 12.5C40 13.656 39.6393 14.7273 39.0273 15.6133L42.957 19.543L41.543 20.957L37.6133 17.0273C36.7273 17.6393 35.656 18 34.5 18C31.468 18 29 15.532 29 12.5C29 9.468 31.468 7 34.5 7L34.5 7ZM34.5 9C32.567 9 31 10.567 31 12.5C31 14.433 32.567 16 34.5 16C36.433 16 38 14.433 38 12.5C38 10.567 36.433 9 34.5 9Z" fill="#F01616"/>
</svg>
