<svg width="24" height="24" viewBox="0 0 24 24" fill="none" xmlns="http://www.w3.org/2000/svg">
<path fill-rule="evenodd" clip-rule="evenodd" d="M12.9873 2.58761C12.5622 1.80413 11.4378 1.80413 11.0127 2.58761L10.5502 3.44018C10.2432 4.00601 9.52443 4.19861 8.97567 3.86207L8.14883 3.35498C7.38899 2.88899 6.41514 3.45124 6.43878 4.34227L6.46451 5.31189C6.48158 5.9554 5.9554 6.48158 5.31189 6.46451L4.34228 6.43878C3.45124 6.41514 2.88899 7.38899 3.35498 8.14882L3.86207 8.97567C4.19861 9.52443 4.00601 10.2432 3.44018 10.5502L2.58761 11.0127C1.80413 11.4378 1.80413 12.5622 2.58761 12.9873L3.44018 13.4498C4.00601 13.7568 4.19861 14.4756 3.86207 15.0243L3.35498 15.8512C2.889 16.611 3.45124 17.5849 4.34227 17.5612L5.31189 17.5355C5.9554 17.5184 6.48158 18.0446 6.46451 18.6881L6.43878 19.6577C6.41514 20.5488 7.38899 21.111 8.14882 20.645L8.97567 20.1379C9.52443 19.8014 10.2432 19.994 10.5502 20.5598L11.0127 21.4124C11.4378 22.1959 12.5622 22.1959 12.9873 21.4124L13.4498 20.5598C13.7568 19.994 14.4756 19.8014 15.0243 20.1379L15.8512 20.645C16.611 21.111 17.5849 20.5488 17.5612 19.6577L17.5355 18.6881C17.5184 18.0446 18.0446 17.5184 18.6881 17.5355L19.6577 17.5612C20.5488 17.5849 21.111 16.611 20.645 15.8512L20.1379 15.0243C19.8014 14.4756 19.994 13.7568 20.5598 13.4498L21.4124 12.9873C22.1959 12.5622 22.1959 11.4378 21.4124 11.0127L20.5598 10.5502C19.994 10.2432 19.8014 9.52443 20.1379 8.97567L20.645 8.14883C21.111 7.38899 20.5488 6.41514 19.6577 6.43878L18.6881 6.46451C18.0446 6.48158 17.5184 5.9554 17.5355 5.31189L17.5612 4.34228C17.5849 3.45124 16.611 2.88899 15.8512 3.35498L15.0243 3.86207C14.4756 4.19861 13.7568 4.00601 13.4498 3.44018L12.9873 2.58761ZM16.7372 9.67572C17.1103 9.26861 17.0828 8.63604 16.6757 8.26285C16.2686 7.88965 15.636 7.91716 15.2628 8.32428L10.3946 13.6351L8.62469 12.2191C8.19343 11.8741 7.56414 11.944 7.21913 12.3753C6.87412 12.8066 6.94404 13.4359 7.37531 13.7809L9.87531 15.7809C10.2862 16.1096 10.8816 16.0636 11.2372 15.6757L16.7372 9.67572Z" fill="#4FB986"/>
</svg>
