<svg width="54" height="54" viewBox="0 0 54 54" fill="none" xmlns="http://www.w3.org/2000/svg">
<g filter="url(#filter0_d)">
<rect x="8" y="8" width="38" height="38" rx="19" fill="white"/>
<path fill-rule="evenodd" clip-rule="evenodd" d="M27.5019 33.7186C27.105 34.1027 26.4719 34.0923 26.0878 33.6954L20.2814 27.6954C19.9062 27.3077 19.9062 26.6923 20.2814 26.3046L26.0878 20.3046C26.4719 19.9077 27.105 19.8973 27.5019 20.2814C27.8987 20.6655 27.9091 21.2985 27.5251 21.6954L23.3593 26H34C34.5523 26 35 26.4477 35 27C35 27.5523 34.5523 28 34 28H23.3593L27.5251 32.3046C27.9091 32.7015 27.8987 33.3345 27.5019 33.7186Z" fill="#9B9B9B"/>
</g>
<defs>
<filter id="filter0_d" x="0" y="0" width="54" height="54" filterUnits="userSpaceOnUse" color-interpolation-filters="sRGB">
<feFlood flood-opacity="0" result="BackgroundImageFix"/>
<feColorMatrix in="SourceAlpha" type="matrix" values="0 0 0 0 0 0 0 0 0 0 0 0 0 0 0 0 0 0 127 0"/>
<feOffset/>
<feGaussianBlur stdDeviation="4"/>
<feColorMatrix type="matrix" values="0 0 0 0 0 0 0 0 0 0 0 0 0 0 0 0 0 0 0.15 0"/>
<feBlend mode="normal" in2="BackgroundImageFix" result="effect1_dropShadow"/>
<feBlend mode="normal" in="SourceGraphic" in2="effect1_dropShadow" result="shape"/>
</filter>
</defs>
</svg>
