<svg width="41" height="33" viewBox="0 0 41 33" fill="none" xmlns="http://www.w3.org/2000/svg">
<path d="M17.9257 0.00195312C15.9815 0.00195312 14.1112 0.757199 12.7128 2.10938L2.80463 11.6855C0.378927 14.0304 0.378927 17.9696 2.80463 20.3145L12.7128 29.8926C14.1108 31.2431 15.9815 32.0007 17.9257 32.002H34.4999C38.0719 32.002 40.9999 29.0739 40.9999 25.502V6.50195C40.9999 2.93002 38.0719 0.00195312 34.4999 0.00195312H17.9257ZM17.9257 3.00195H34.4999C36.45 3.00195 37.9999 4.55189 37.9999 6.50195V25.502C37.9999 27.452 36.45 29.002 34.4999 29.002H17.9277H17.9257C16.7586 29.0007 15.6383 28.5454 14.7988 27.7344V27.7363L4.88861 18.1582C3.65431 16.965 3.65431 15.0369 4.88861 13.8438L14.7988 4.26563C15.6384 3.4538 16.7579 3.00196 17.9257 3.00196V3.00195ZM31.4863 7.97852C31.0901 7.98787 30.7138 8.15358 30.4394 8.43945L24.9999 13.8789L19.5605 8.43945C19.278 8.14855 18.8898 7.98439 18.4843 7.98437C17.8737 7.98452 17.3241 8.3548 17.0945 8.92066C16.865 9.48653 17.0014 10.1351 17.4394 10.5605L22.8788 16L17.4394 21.4395C17.0475 21.8157 16.8897 22.3743 17.0267 22.9C17.1638 23.4257 17.5743 23.8362 18.0999 23.9732C18.6256 24.1102 19.1843 23.9524 19.5605 23.5605L24.9999 18.1211L30.4394 23.5605C30.8156 23.9524 31.3743 24.1102 31.8999 23.9732C32.4256 23.8362 32.8361 23.4257 32.9731 22.9C33.1102 22.3743 32.9523 21.8157 32.5605 21.4395L27.121 16L32.5605 10.5605C33.0069 10.132 33.1445 9.47336 32.9068 8.90201C32.6691 8.33066 32.1049 7.9639 31.4863 7.97851L31.4863 7.97852Z" fill="black"/>
</svg>
