<svg width="20" height="20" viewBox="0 0 20 20" fill="none" xmlns="http://www.w3.org/2000/svg">
<path fill-rule="evenodd" clip-rule="evenodd" d="M5 9C5 6.79086 6.79086 5 9 5H16C18.2091 5 20 6.79086 20 9V16C20 18.2091 18.2091 20 16 20H9C6.79086 20 5 18.2091 5 16V9ZM9 7C7.89543 7 7 7.89543 7 9V16C7 17.1046 7.89543 18 9 18H16C17.1046 18 18 17.1046 18 16V9C18 7.89543 17.1046 7 16 7H9Z" fill="#A6A6A6"/>
<path d="M4 0C1.79086 0 0 1.79086 0 4V11C0 13.2091 1.79086 15 4 15H5V13H4C2.89543 13 2 12.1046 2 11V4C2 2.89543 2.89543 2 4 2H11C12.1046 2 13 2.89543 13 4V5H15V4C15 1.79086 13.2091 0 11 0H4Z" fill="#A6A6A6"/>
</svg>
