<svg width="20" height="20" viewBox="0 0 20 20" fill="none" xmlns="http://www.w3.org/2000/svg">
<path d="M9.66584 0.00542282C4.61976 0.171257 0.373696 4.27289 0.0246912 9.33535C-0.344315 14.6913 3.46675 19.2171 8.50582 19.9779V12.7143H6.8918C6.16579 12.7143 5.57778 12.1234 5.57778 11.3937C5.57778 10.664 6.16579 10.0731 6.8918 10.0731H8.50482V8.31522C8.50482 5.40458 9.91584 4.12716 12.3229 4.12716C12.6799 4.12716 12.9849 4.1352 13.2439 4.14826C13.8799 4.17942 14.3729 4.7121 14.3729 5.35232C14.3729 6.01867 13.8359 6.55839 13.1729 6.55839H12.7309C11.7089 6.55839 11.3519 7.53228 11.3519 8.6298V10.0741H13.2219C13.8129 10.0741 14.2649 10.6037 14.1749 11.1907L14.0669 11.8952C13.9939 12.3676 13.5899 12.7164 13.1139 12.7164H11.3519V20C16.2349 19.3336 20 15.1385 20 10.051C20 4.38847 15.3409 -0.179507 9.66584 0.00542383V0.00542282Z" fill="#B3B3B3"/>
</svg>
