<svg width="40" height="40" viewBox="0 0 40 40" fill="none" xmlns="http://www.w3.org/2000/svg">
<path d="M20 38.25C9.93714 38.25 1.75 30.0629 1.75 20C1.75 9.93714 9.93714 1.75 20 1.75C30.0629 1.75 38.25 9.93714 38.25 20C38.25 30.0629 30.0629 38.25 20 38.25Z" fill="#F0F0F0" stroke="#1276A7"/>
<path d="M21.2377 11.4843C20.0302 12.1791 19.3152 13.4338 19.3152 14.7569C19.3152 15.4517 19.6 16.1519 19.9567 16.7765C20.2415 17.3345 20.3812 18.3084 19.3869 18.7962C18.6774 19.212 17.7492 18.9348 17.3247 18.2382C16.9001 17.6802 16.402 17.1222 15.7605 16.7063C14.553 16.0115 13.1285 16.0115 11.9208 16.7063C10.7132 17.4011 10 18.659 10 19.9824C10 21.3059 10.7095 22.5601 11.9205 23.2568C13.1281 23.9516 14.5526 23.9516 15.7602 23.2568C16.4017 22.9076 16.8997 22.3532 17.2528 21.7249C17.5376 21.2371 18.3206 20.6089 19.315 21.1669C20.0245 21.5827 20.2377 22.4918 19.8847 23.1866C19.5282 23.8148 19.315 24.5115 19.315 25.2063C19.315 26.5312 20.0245 27.784 21.2376 28.4789C22.4451 29.1737 23.8696 29.1737 25.0773 28.4789C26.2849 27.7841 27 26.5294 27 25.2063C27 23.8832 26.2887 22.6286 25.0774 21.9319C24.4359 21.5827 23.7246 21.4441 22.9434 21.4441C22.3019 21.4441 21.4509 21.0283 21.4509 19.9824C21.4509 19.1454 22.0924 18.5207 22.9434 18.5207C23.6529 18.5207 24.4359 18.3821 25.0774 18.0329C26.285 17.3381 27 16.0835 27 14.7605C27 13.4374 26.2887 12.1828 25.0774 11.4879C24.5077 11.1387 23.7981 11.0001 23.1569 11.0001C22.5191 10.9965 21.8041 11.1387 21.238 11.4843" fill="#1276A7"/>
</svg>
