<svg width="116" height="44" viewBox="0 0 116 44" fill="none" xmlns="http://www.w3.org/2000/svg">
<rect width="116" height="44" rx="22" fill="#DFDFDF"/>
<path d="M18.81 24.31H20.25C20.25 25.018 20.544 25.618 21.132 26.11C21.732 26.59 22.548 26.83 23.58 26.83C24.636 26.83 25.422 26.626 25.938 26.218C26.466 25.798 26.73 25.252 26.73 24.58C26.73 23.476 26.01 22.786 24.57 22.51L22.14 22.06C20.1 21.676 19.08 20.596 19.08 18.82C19.08 17.764 19.47 16.9 20.25 16.228C21.03 15.556 22.08 15.22 23.4 15.22C24.804 15.22 25.932 15.592 26.784 16.336C27.648 17.068 28.08 17.986 28.08 19.09H26.64C26.64 18.382 26.346 17.788 25.758 17.308C25.182 16.816 24.396 16.57 23.4 16.57C22.488 16.57 21.78 16.78 21.276 17.2C20.772 17.62 20.52 18.16 20.52 18.82C20.52 19.876 21.21 20.536 22.59 20.8L24.57 21.16C25.818 21.388 26.73 21.778 27.306 22.33C27.882 22.882 28.17 23.632 28.17 24.58C28.17 25.648 27.768 26.518 26.964 27.19C26.16 27.85 25.032 28.18 23.58 28.18C22.14 28.18 20.982 27.808 20.106 27.064C19.242 26.308 18.81 25.39 18.81 24.31ZM30.3342 24.4V19H31.6842V24.4C31.6842 25.12 31.9182 25.72 32.3862 26.2C32.8542 26.68 33.4302 26.92 34.1142 26.92C34.8342 26.92 35.4462 26.674 35.9502 26.182C36.4662 25.678 36.7242 25.084 36.7242 24.4V19H38.0742V28H36.9042L36.7242 27.01H36.6342C36.4182 27.262 36.1902 27.46 35.9502 27.604C35.3502 27.988 34.6782 28.18 33.9342 28.18C32.8902 28.18 32.0262 27.832 31.3422 27.136C30.6702 26.428 30.3342 25.516 30.3342 24.4ZM40.6898 28V15.4H42.0398V20.26H42.1298C42.8858 19.3 43.8458 18.82 45.0098 18.82C46.1978 18.82 47.1818 19.258 47.9618 20.134C48.7538 20.998 49.1498 22.12 49.1498 23.5C49.1498 24.88 48.7538 26.008 47.9618 26.884C47.1818 27.748 46.1978 28.18 45.0098 28.18C43.8458 28.18 42.8858 27.7 42.1298 26.74H42.0398L41.8598 28H40.6898ZM42.8858 25.966C43.4498 26.602 44.1278 26.92 44.9198 26.92C45.7118 26.92 46.3898 26.602 46.9538 25.966C47.5178 25.33 47.7998 24.508 47.7998 23.5C47.7998 22.492 47.5178 21.67 46.9538 21.034C46.3898 20.398 45.7118 20.08 44.9198 20.08C44.1278 20.08 43.4498 20.398 42.8858 21.034C42.3218 21.67 42.0398 22.492 42.0398 23.5C42.0398 24.508 42.3218 25.33 42.8858 25.966ZM50.4091 25.39H51.7591C51.7591 25.81 51.9571 26.17 52.3531 26.47C52.7611 26.77 53.3131 26.92 54.0091 26.92C54.6931 26.92 55.2211 26.794 55.5931 26.542C55.9771 26.278 56.1691 25.954 56.1691 25.57C56.1691 24.862 55.6591 24.412 54.6391 24.22L53.1091 23.95C51.4291 23.674 50.5891 22.834 50.5891 21.43C50.5891 20.674 50.8771 20.05 51.4531 19.558C52.0291 19.066 52.8511 18.82 53.9191 18.82C54.9631 18.82 55.8091 19.096 56.4571 19.648C57.1051 20.2 57.4291 20.854 57.4291 21.61H56.0791C56.0791 21.19 55.8811 20.83 55.4851 20.53C55.1011 20.23 54.5791 20.08 53.9191 20.08C53.2711 20.08 52.7791 20.212 52.4431 20.476C52.1071 20.728 51.9391 21.046 51.9391 21.43C51.9391 22.09 52.4191 22.51 53.3791 22.69L54.9091 22.96C55.8091 23.128 56.4691 23.428 56.8891 23.86C57.3091 24.28 57.5191 24.85 57.5191 25.57C57.5191 26.326 57.2131 26.95 56.6011 27.442C56.0011 27.934 55.1371 28.18 54.0091 28.18C52.9291 28.18 52.0591 27.904 51.3991 27.352C50.7391 26.8 50.4091 26.146 50.4091 25.39ZM65.7984 25.03H67.1484C66.9204 26.026 66.4524 26.8 65.7444 27.352C65.0484 27.904 64.1964 28.18 63.1884 28.18C61.9524 28.18 60.9204 27.748 60.0924 26.884C59.2764 26.008 58.8684 24.88 58.8684 23.5C58.8684 22.12 59.2764 20.998 60.0924 20.134C60.9204 19.258 61.9524 18.82 63.1884 18.82C64.1844 18.82 65.0364 19.096 65.7444 19.648C66.4524 20.188 66.9204 20.932 67.1484 21.88H65.7984C65.6184 21.304 65.3004 20.86 64.8444 20.548C64.3884 20.236 63.8364 20.08 63.1884 20.08C62.3484 20.08 61.6404 20.398 61.0644 21.034C60.5004 21.67 60.2184 22.492 60.2184 23.5C60.2184 24.508 60.5004 25.33 61.0644 25.966C61.6404 26.602 62.3484 26.92 63.1884 26.92C64.5684 26.92 65.4384 26.29 65.7984 25.03ZM68.9534 28V19H70.1234L70.3034 19.9H70.3934C70.6094 19.588 70.8314 19.36 71.0594 19.216C71.2994 19.072 71.6474 19 72.1034 19H73.6334V20.26H72.2834C71.6474 20.26 71.1554 20.434 70.8074 20.782C70.4714 21.118 70.3034 21.604 70.3034 22.24V28H68.9534ZM75.1605 28V19H76.5105V28H75.1605ZM75.0705 17.11V15.58H76.6005V17.11H75.0705ZM79.2035 28V15.4H80.5535V20.26H80.6435C81.3995 19.3 82.3595 18.82 83.5235 18.82C84.7115 18.82 85.6955 19.258 86.4755 20.134C87.2675 20.998 87.6635 22.12 87.6635 23.5C87.6635 24.88 87.2675 26.008 86.4755 26.884C85.6955 27.748 84.7115 28.18 83.5235 28.18C82.3595 28.18 81.3995 27.7 80.6435 26.74H80.5535L80.3735 28H79.2035ZM81.3995 25.966C81.9635 26.602 82.6415 26.92 83.4335 26.92C84.2255 26.92 84.9035 26.602 85.4675 25.966C86.0315 25.33 86.3135 24.508 86.3135 23.5C86.3135 22.492 86.0315 21.67 85.4675 21.034C84.9035 20.398 84.2255 20.08 83.4335 20.08C82.6415 20.08 81.9635 20.398 81.3995 21.034C80.8355 21.67 80.5535 22.492 80.5535 23.5C80.5535 24.508 80.8355 25.33 81.3995 25.966ZM95.8528 25.48H97.2928C96.9808 26.344 96.4888 27.01 95.8168 27.478C95.1568 27.946 94.3588 28.18 93.4228 28.18C92.1868 28.18 91.1548 27.748 90.3268 26.884C89.5108 26.008 89.1028 24.88 89.1028 23.5C89.1028 22.12 89.5108 20.998 90.3268 20.134C91.1548 19.258 92.1868 18.82 93.4228 18.82C94.6108 18.82 95.5948 19.228 96.3748 20.044C97.1668 20.86 97.5628 21.892 97.5628 23.14C97.5628 23.332 97.5448 23.59 97.5088 23.914L97.4728 24.13H90.4528C90.5488 24.97 90.8728 25.648 91.4248 26.164C91.9888 26.668 92.6548 26.92 93.4228 26.92C93.9628 26.92 94.4428 26.794 94.8628 26.542C95.2948 26.29 95.6248 25.936 95.8528 25.48ZM90.4528 22.87H96.2128C96.1648 22.054 95.8768 21.388 95.3488 20.872C94.8328 20.344 94.1908 20.08 93.4228 20.08C92.6188 20.08 91.9468 20.338 91.4068 20.854C90.8668 21.37 90.5488 22.042 90.4528 22.87Z" fill="#5A5A5A"/>
</svg>
