<svg width="20" height="17" viewBox="0 0 20 17" fill="none" xmlns="http://www.w3.org/2000/svg">
<path d="M19.8661 2.03292C19.7256 1.88889 19.5095 1.8478 19.3252 1.93186L19.2471 1.96728C19.1809 1.9975 19.1147 2.02772 19.048 2.05747C19.2418 1.751 19.3956 1.42328 19.5018 1.08422C19.5609 0.897223 19.4966 0.692751 19.3404 0.571862C19.1842 0.450973 18.969 0.438223 18.7999 0.540695C18.2566 0.867945 17.7347 1.10358 17.1952 1.26792C16.3809 0.4845 15.2719 0 14.0476 0C11.5491 0 9.52391 2.00836 9.52391 4.48611C9.52391 4.48847 9.52391 4.58197 9.52391 4.72222L9.04821 4.68444C4.41829 4.14139 3.10021 1.05306 3.04545 0.91989C2.95688 0.697945 2.76165 0.535973 2.52594 0.487335C2.2907 0.437751 2.04642 0.510946 1.87595 0.679529C1.78166 0.773501 0.952631 1.64333 0.952631 3.30556C0.952631 4.48989 1.485 5.45039 2.17404 6.19745C1.85309 6.00336 1.66595 5.84611 1.66119 5.84186C1.44167 5.65203 1.12739 5.61236 0.866442 5.74364C0.606446 5.87539 0.453116 6.1507 0.479306 6.43922C0.488353 6.53886 0.691207 8.4287 2.8926 9.85575L2.49118 9.928C2.24785 9.97192 2.04452 10.1377 1.95404 10.3662C1.86404 10.5953 1.89928 10.8536 2.04785 11.05C2.09785 11.1166 3.02783 12.3156 5.04732 13.005C3.96877 13.3615 2.48689 13.6944 0.71454 13.6944C0.434545 13.6944 0.179788 13.8569 0.0640757 14.11C-0.0521124 14.3631 -0.00782744 14.6601 0.176931 14.8689C0.253597 14.9562 2.11214 17 6.90491 17C14.8633 17 18.5714 9.67347 18.5714 4.72222V4.48611C18.5714 4.41622 18.5638 4.34775 18.5609 4.27881C19.5571 3.32397 19.9318 2.60761 19.9499 2.5722C20.0399 2.39275 20.0066 2.17647 19.8661 2.03292L19.8661 2.03292Z" fill="#B3B3B3"/>
</svg>
